HIERARCHY
ROOT Hips
{
    OFFSET 0.000000 0.000000 0.000000
    CHANNELS 6 Xposition Yposition Zposition Zrotation Xrotation Yrotation
    JOINT Spine
    {
        OFFSET -0.000000 14.517291 0.000000
        CHANNELS 3 Zrotation Xrotation Yrotation
        JOINT Spine1
        {
            OFFSET -0.000000 37.558300 0.000000
            CHANNELS 3 Zrotation Xrotation Yrotation
            JOINT Neck
            {
                OFFSET -0.000000 37.404057 3.400369
                CHANNELS 3 Zrotation Xrotation Yrotation
                JOINT Head
                {
                    OFFSET -0.000000 24.785618 -3.540803
                    CHANNELS 3 Zrotation Xrotation Yrotation
                    End Site
                    {
                        OFFSET -0.000000 35.408028 0.000000
                    }
                }
            }
            JOINT LeftShoulder
            {
                OFFSET 6.992933 33.973492 -0.192664
                CHANNELS 3 Zrotation Xrotation Yrotation
                JOINT LeftArm
                {
                    OFFSET 21.527611 0.000000 0.000000
                    CHANNELS 3 Zrotation Xrotation Yrotation
                    JOINT LeftForeArm
                    {
                        OFFSET 56.353916 0.000000 0.000000
                        CHANNELS 3 Zrotation Xrotation Yrotation
                        JOINT LeftHand
                        {
                            OFFSET 47.774071 0.000000 0.000000
                            CHANNELS 3 Zrotation Xrotation Yrotation
                            End Site
                            {
                                OFFSET 26.556021 0.000000 0.000000
                            }
                        }
                    }
                }
            }
            JOINT RightShoulder
            {
                OFFSET -7.065357 33.973492 -0.192664
                CHANNELS 3 Zrotation Xrotation Yrotation
                JOINT RightArm
                {
                    OFFSET -21.527611 0.000000 0.000000
                    CHANNELS 3 Zrotation Xrotation Yrotation
                    JOINT RightForeArm
                    {
                        OFFSET -56.353916 0.000000 0.000000
                        CHANNELS 3 Zrotation Xrotation Yrotation
                        JOINT RightHand
                        {
                            OFFSET -47.774071 0.000000 0.000000
                            CHANNELS 3 Zrotation Xrotation Yrotation
                            End Site
                            {
                                OFFSET -26.556021 0.000000 0.000000
                            }
                        }
                    }
                }
            }
        }
    }
    JOINT LeftUpLeg
    {
        OFFSET 17.704014 0.000000 0.000000
        CHANNELS 3 Zrotation Xrotation Yrotation
        JOINT LeftLeg
        {
            OFFSET -0.000000 -81.181816 0.000000
            CHANNELS 3 Zrotation Xrotation Yrotation
            JOINT LeftFoot
            {
                OFFSET -0.000000 -62.821102 0.000000
                CHANNELS 3 Zrotation Xrotation Yrotation
                JOINT LeftToeBase
                {
                    OFFSET -0.000000 -11.507608 26.556021
                    CHANNELS 3 Zrotation Xrotation Yrotation
                    End Site
                    {
                        OFFSET -0.000000 0.000000 7.081605
                    }
                }
            }
        }
    }
    JOINT RightUpLeg
    {
        OFFSET -17.704014 0.000000 0.000000
        CHANNELS 3 Zrotation Xrotation Yrotation
        JOINT RightLeg
        {
            OFFSET -0.000000 -81.181816 0.000000
            CHANNELS 3 Zrotation Xrotation Yrotation
            JOINT RightFoot
            {
                OFFSET -0.000000 -62.821102 0.000000
                CHANNELS 3 Zrotation Xrotation Yrotation
                JOINT RightToeBase
                {
                    OFFSET -0.000000 -11.507608 26.556021
                    CHANNELS 3 Zrotation Xrotation Yrotation
                    End Site
                    {
                        OFFSET -0.000000 0.000000 7.081605
                    }
                }
            }
        }
    }
}
MOTION
Frames:    12
Frame Time:    0.008333
18.941441    151.964035    -92.625160    -1.965908    -23.622265    31.245079    -1.890409    -3.956238    -0.546474    -12.061892    1.455251    -0.009193    9.924659    -11.155608    -4.563097    12.249116    16.941900    -7.300557    10.971729    1.694532    -27.201204    -22.282141    19.868250    -79.970734    -14.567082    -12.076058    -76.268852    14.018439    -23.572731    -4.594104    -17.504015    -12.297063    0.183478    29.202671    -24.722198    80.147919    -9.336977    -15.067926    22.409262    -8.651284    -15.333138    27.589642    26.306988    17.762053    -1.475878    -12.337231    42.193779    -18.879831    12.612064    -37.635509    46.111050    0.000000    0.000000    0.000000    -6.141562    -2.541441    -5.791051    9.734439    24.539944    -9.663218    3.496331    6.150298    -14.117620    0.000000    0.000000    0.000000    
18.806984    152.090210    -92.649696    -1.999940    -23.334484    31.264740    -1.846130    -3.940036    -0.564024    -12.018683    1.504719    -0.010822    9.967869    -11.175249    -4.533549    12.241978    16.916214    -7.279246    10.945952    1.688766    -27.209179    -22.236156    19.906696    -79.934776    -14.540667    -12.106944    -76.221939    14.036810    -23.564293    -4.509485    -17.434479    -12.232361    0.196504    29.176311    -24.718306    80.139183    -9.330987    -15.029418    22.447611    -8.619625    -15.284482    27.580847    26.188593    17.581877    -1.453065    -12.335999    41.867653    -18.888575    12.504151    -37.435238    46.078564    0.000000    0.000000    0.000000    -6.166364    -2.732112    -5.797012    9.659295    24.332239    -9.685845    3.499487    6.276639    -14.158867    0.000000    0.000000    0.000000    
18.673241    152.219818    -92.683121    -2.012262    -23.025805    31.279827    -1.861429    -3.923450    -0.557081    -11.914768    1.552516    -0.004637    9.911265    -11.121212    -4.552274    12.335484    16.792219    -7.266573    10.923484    1.696337    -27.220339    -22.283712    19.868139    -79.899185    -14.640638    -12.011821    -76.112061    14.058104    -23.531527    -4.534311    -17.387280    -12.160129    0.177699    29.138187    -24.693596    80.118614    -9.337172    -15.040670    22.528864    -8.634506    -15.290572    27.569643    26.016687    17.394753    -1.410798    -12.288412    41.524906    -18.874443    12.269534    -37.313152    45.994747    0.000000    0.000000    0.000000    -6.222020    -2.933293    -5.765481    9.595732    24.118881    -9.726921    3.505022    6.401557    -14.204368    0.000000    0.000000    0.000000    
18.543545    152.342514    -92.717003    -2.032722    -22.713837    31.309528    -1.786899    -3.895847    -0.611130    -11.916515    1.574259    -0.021449    9.922077    -11.158086    -4.521010    12.311854    16.806084    -7.241246    10.885265    1.706249    -27.122610    -22.198673    19.942629    -79.892090    -14.601192    -12.059150    -76.093727    14.050117    -23.534708    -4.459953    -17.360651    -12.143682    0.223268    29.211946    -24.665480    80.132561    -9.287271    -14.965488    22.561184    -8.624723    -15.221256    27.583515    25.849398    17.206093    -1.386931    -12.242319    41.182289    -18.871662    12.136562    -37.126640    45.946320    0.000000    0.000000    0.000000    -6.274972    -3.132076    -5.765294    9.518961    23.901739    -9.733431    3.516070    6.507913    -14.255684    0.000000    0.000000    0.000000    
18.403715    152.466904    -92.750687    -2.058854    -22.430729    31.345934    -1.789461    -3.838401    -0.585580    -11.832415    1.588851    -0.012872    9.996754    -11.083738    -4.528873    12.294649    16.656979    -7.244652    10.935071    1.738549    -27.228987    -22.214684    19.909916    -79.859390    -14.653904    -12.059866    -75.989655    14.125817    -23.551668    -4.413914    -17.220985    -12.017344    0.191841    29.213430    -24.729265    80.155060    -9.179124    -14.869100    22.624039    -8.713851    -15.171112    27.698145    25.719984    17.029158    -1.366737    -12.199566    40.844379    -18.878511    11.979851    -36.950878    45.883915    0.000000    0.000000    0.000000    -6.306674    -3.307547    -5.776803    9.448591    23.677031    -9.755291    3.492225    6.644513    -14.285141    0.000000    0.000000    0.000000    
18.266834    152.594421    -92.783585    -2.080575    -22.129007    31.376347    -1.707418    -3.833308    -0.652576    -11.848598    1.673202    -0.027136    10.031286    -11.126428    -4.480947    12.271066    16.647894    -7.205787    10.932362    1.734367    -27.083673    -22.143681    19.965765    -79.902725    -14.622903    -12.123419    -75.916756    14.011540    -23.567080    -4.383873    -17.134922    -12.004824    0.285742    29.138542    -24.679424    80.105591    -9.228485    -14.940682    22.665033    -8.680878    -15.219419    27.667665    25.576231    16.850840    -1.335238    -12.169221    40.491287    -18.884304    11.851759    -36.753456    45.833233    0.000000    0.000000    0.000000    -6.349552    -3.500847    -5.807473    9.359946    23.463232    -9.737671    3.484101    6.775436    -14.324492    0.000000    0.000000    0.000000    
18.126648    152.719696    -92.824768    -2.094515    -21.800388    31.420067    -1.757343    -3.817402    -0.622336    -11.718940    1.693598    -0.016251    10.050419    -11.055472    -4.498344    12.272545    16.532181    -7.209435    10.922986    1.785712    -27.210033    -22.194403    19.896278    -79.822571    -14.703225    -12.039991    -75.776276    14.057298    -23.526726    -4.422562    -16.998531    -11.890007    0.260749    29.074823    -24.704130    80.092995    -9.144158    -14.872315    22.731934    -8.653878    -15.152953    27.631422    25.402254    16.639866    -1.267763    -12.089674    40.161167    -18.910139    11.679870    -36.559261    45.742870    0.000000    0.000000    0.000000    -6.418648    -3.726277    -5.807929    9.296868    23.269827    -9.762442    3.465964    6.898265    -14.371745    0.000000    0.000000    0.000000    
17.984488    152.833832    -92.857536    -2.106940    -21.523825    31.471611    -1.686024    -3.749971    -0.691084    -11.679398    1.737979    -0.036331    9.988795    -11.067919    -4.481457    12.344742    16.507690    -7.175014    10.877659    1.793101    -27.112719    -22.068230    19.953974    -79.823387    -14.658148    -12.131791    -75.745148    13.966714    -23.568407    -4.401944    -16.954012    -11.779945    0.307992    29.202223    -24.788343    80.208664    -9.044152    -14.787096    22.766016    -8.709424    -15.104300    27.712914    25.270844    16.457811    -1.252235    -12.044976    39.855576    -18.886923    11.510811    -36.402218    45.648659    0.000000    0.000000    0.000000    -6.427639    -3.913278    -5.936505    9.107741    23.106018    -9.754786    3.475875    7.014648    -14.319864    0.000000    0.000000    0.000000    
17.836025    152.959152    -92.891434    -2.127089    -21.211424    31.524752    -1.666510    -3.710960    -0.719150    -11.644903    1.755311    -0.044761    10.126548    -11.075446    -4.443393    12.204024    16.492456    -7.168012    10.904420    1.813582    -27.098007    -22.091717    19.960464    -79.812973    -14.703661    -12.111691    -75.600609    13.960814    -23.557236    -4.423029    -16.827303    -11.766123    0.357636    29.276609    -24.803993    80.186050    -8.864267    -14.668903    22.865891    -8.766021    -15.022645    27.654659    25.121565    16.241030    -1.235247    -11.994311    39.539139    -18.868044    11.328073    -36.213531    45.551018    0.000000    0.000000    0.000000    -6.517316    -4.107488    -5.844269    9.173709    22.872679    -9.808525    3.441600    7.125293    -14.462221    0.000000    0.000000    0.000000    
17.684885    153.085678    -92.932243    -2.161342    -20.896933    31.573532    -1.672466    -3.674511    -0.734801    -11.551201    1.766565    -0.050443    10.251642    -11.027754    -4.398098    12.081601    16.399355    -7.136810    10.912761    1.839982    -27.132370    -22.084425    19.987637    -79.787460    -14.656578    -12.141662    -75.447517    13.943384    -23.525064    -4.457667    -16.681379    -11.669992    0.354956    29.193895    -24.778866    80.165306    -8.819947    -14.668277    22.951363    -8.729466    -15.018646    27.696558    24.982460    16.002283    -1.155393    -11.905908    39.256260    -18.902576    11.128536    -36.030586    45.446804    0.000000    0.000000    0.000000    -6.561877    -4.328293    -5.819817    9.125547    22.668018    -9.863401    3.440329    7.258759    -14.525027    0.000000    0.000000    0.000000    
17.524469    153.197922    -92.958298    -2.193789    -20.615969    31.629194    -1.667943    -3.580620    -0.782815    -11.442449    1.752564    -0.070038    10.359650    -11.068500    -4.360932    11.943819    16.420650    -7.130536    10.917875    1.882391    -27.077375    -22.008045    20.010090    -79.835213    -14.659099    -12.186036    -75.323250    13.952439    -23.541233    -4.423053    -16.560215    -11.590563    0.371491    29.262995    -24.816902    80.226936    -8.662741    -14.574065    23.021111    -8.705407    -14.941349    27.655825    24.888660    15.778942    -1.095254    -11.862119    39.002762    -18.937365    10.968657    -35.856705    45.360966    0.000000    0.000000    0.000000    -6.585467    -4.514716    -5.858902    9.053012    22.477285    -9.865753    3.429713    7.353909    -14.573027    0.000000    0.000000    0.000000    
17.368225    153.311569    -93.000000    -2.209505    -20.296738    31.696745    -1.694317    -3.509098    -0.811190    -11.354426    1.736763    -0.082361    10.684539    -11.138947    -4.268086    11.546489    16.435545    -7.121608    10.966514    1.906006    -27.084681    -22.008825    20.020939    -79.849396    -14.668116    -12.209280    -75.163338    13.887877    -23.532835    -4.388636    -16.430286    -11.516273    0.381721    29.224630    -24.816713    80.173752    -8.566462    -14.491033    23.116728    -8.677331    -14.868948    27.724586    24.743580    15.529463    -1.088985    -11.843437    38.724800    -18.926918    10.806252    -35.665573    45.302681    0.000000    0.000000    0.000000    -6.655692    -4.733916    -5.897151    8.999448    22.295210    -9.889775    3.406707    7.460181    -14.609671    0.000000    0.000000    0.000000    
